<svg preserveAspectRatio="none" overflow="visible" style="display: block;" width="9.28158" height="9.28141" viewBox="0 0 9.28158 9.28141" fill="none" xmlns="http://www.w3.org/2000/svg">
<g id="Group">
<path id="Vector" d="M7.42511 5.56883H6.49697V3.71255H7.42511C8.45024 3.71255 9.28139 2.88141 9.28139 1.85628C9.28139 0.831148 8.45024 0 7.42511 0C6.39986 0 5.56883 0.831148 5.56883 1.85628V2.78442H3.71255V1.85628C3.71255 0.831148 2.88141 0 1.85628 0C0.831148 0 0 0.831148 0 1.85628C0 2.88141 0.831148 3.71255 1.85628 3.71255H2.78442V5.56883H1.85628C0.831148 5.56883 0 6.39998 0 7.42511C0 8.45024 0.831148 9.28139 1.85628 9.28139C2.88152 9.28139 3.71255 8.45024 3.71255 7.42511V6.49697H5.56883V7.42279L5.56872 7.42511C5.56872 8.45024 6.39986 9.28139 7.42499 9.28139C8.45012 9.28139 9.28127 8.45024 9.28127 7.42511C9.28127 6.39998 8.45024 5.56906 7.42511 5.56883ZM7.42511 0.928139C7.93767 0.928139 8.35325 1.34371 8.35325 1.85628C8.35325 2.36884 7.93767 2.78442 7.42511 2.78442H6.49697V1.85628C6.49697 1.34371 6.91254 0.928139 7.42511 0.928139ZM0.928139 1.85628C0.928139 1.34371 1.34371 0.928139 1.85628 0.928139C2.36884 0.928139 2.78442 1.34371 2.78442 1.85628V2.78442H1.85628C1.34371 2.78442 0.928139 2.36873 0.928139 1.85628ZM1.85628 8.35325C1.34371 8.35325 0.928139 7.93767 0.928139 7.42511C0.928139 6.91254 1.34371 6.49697 1.85628 6.49697H2.78442V7.42511C2.78442 7.93767 2.36884 8.35325 1.85628 8.35325ZM3.71255 5.56883V3.71255H5.56883V5.56883H3.71255ZM7.42511 8.35325C6.91254 8.35325 6.49697 7.93767 6.49697 7.42511V6.49697H7.42499C7.93756 6.49697 8.35313 6.91254 8.35313 7.42511C8.35313 7.93767 7.93767 8.35325 7.42511 8.35325Z" fill="white" fill-opacity="0.66"/>
</g>
</svg>
