<svg preserveAspectRatio="none" overflow="visible" style="display: block;" width="1315.83" height="801.714" viewBox="0 0 1315.83 801.714" fill="none" xmlns="http://www.w3.org/2000/svg">
<g id="Top Right Corner">
<path id="1" fill-rule="evenodd" clip-rule="evenodd" d="M648.039 49.8916H1261.25V352.789H648.039V49.8916Z" fill="url(#paint0_linear_0_59)"/>
<path id="2" fill-rule="evenodd" clip-rule="evenodd" d="M1239.71 207.678C1239.71 207.678 1190.46 190.092 1146.36 190.092C1102.27 190.092 1012.17 182.495 971.466 167.021C930.76 151.548 868.528 118.729 829.193 98.8942C789.857 79.0596 739.473 50.7018 664.257 33.9569C589.04 17.2121 0 0 0 0L197.549 343.928L769.378 654.9L1276.87 764.007L1239.71 207.678Z" fill="url(#paint1_linear_0_59)"/>
<g id="3">
<path fill-rule="evenodd" clip-rule="evenodd" d="M1241.52 365.908C1241.52 365.908 1199.96 333.532 1143.64 315.358C1087.33 297.185 1025.71 282.591 963.31 245.038C900.908 207.484 820.382 181.383 776.625 174.709C732.868 168.034 688.902 164.742 655.191 151.633C621.48 138.525 568.689 104.38 521.98 94.4987C475.271 84.6178 434.254 88.8972 399.637 80.2097C365.02 71.5221 249.211 27.4704 249.211 27.4704L12.6836 9.88917L67.9596 199.982L455.829 471.396L1019.5 746.102C1019.5 746.102 1315.83 776.869 1315.83 776.869C1315.83 776.869 1241.52 365.908 1241.52 365.908Z" fill="url(#paint2_linear_0_59)"/>
<path fill-rule="evenodd" clip-rule="evenodd" d="M1241.52 365.908C1241.52 365.908 1199.96 333.532 1143.64 315.358C1087.33 297.185 1025.71 282.591 963.31 245.038C900.908 207.484 820.382 181.383 776.625 174.709C732.868 168.034 688.902 164.742 655.191 151.633C621.48 138.525 568.689 104.38 521.98 94.4987C475.271 84.6178 434.254 88.8972 399.637 80.2097C365.02 71.5221 249.211 27.4704 249.211 27.4704L12.6836 9.88917L67.9596 199.982L455.829 471.396L1019.5 746.102C1019.5 746.102 1315.83 776.869 1315.83 776.869C1315.83 776.869 1241.52 365.908 1241.52 365.908Z" fill="url(#paint3_linear_0_59)"/>
</g>
<g id="4" filter="url(#filter0_i_0_59)">
<path fill-rule="evenodd" clip-rule="evenodd" d="M289.749 169.315C289.749 169.315 319.147 177.762 350.771 188.719C382.395 199.676 430.656 210.694 474.969 213.992C519.282 217.289 560.552 214.067 600.438 210.369C640.324 206.672 670.665 210.369 704.236 222.203C724.064 229.192 733.852 239.63 747.868 246.263C758.474 251.281 772.576 254.31 783.861 256.762C810.06 262.455 836.57 272.958 867.807 291.871C899.044 310.784 934.499 325.806 966.39 332.319C998.28 338.833 1052.09 342.177 1105.3 350.431C1158.52 358.685 1193.89 373.664 1214.34 383.635C1234.79 393.606 1257.16 410.802 1257.16 410.802L1286.95 764.005L878.422 701.652L141.351 131.816L289.749 169.315Z" fill="url(#paint4_linear_0_59)"/>
</g>
<g id="5" filter="url(#filter1_f_0_59)">
<path fill-rule="evenodd" clip-rule="evenodd" d="M1238.06 541.891C1238.06 541.891 1171.65 511.339 1125.54 488.245C1079.42 465.151 985.17 424.265 897.119 408.821C809.068 393.378 695.737 361.25 638.433 343.654C581.129 326.057 327.755 245.902 327.755 245.902L304.248 343.654L769.378 654.898L1261.73 795.764L1238.06 541.891Z" fill="url(#paint5_linear_0_59)"/>
</g>
<g id="6" filter="url(#filter2_f_0_59)">
<path fill-rule="evenodd" clip-rule="evenodd" d="M532.472 291.473L715.549 370.738C715.549 370.738 579.339 336.145 560.475 335.75C551.943 335.571 388.317 279.869 382.769 266.348C380.139 259.938 532.472 291.473 532.472 291.473Z" fill="#8F46B2"/>
</g>
<g id="7" filter="url(#filter3_f_0_59)">
<path fill-rule="evenodd" clip-rule="evenodd" d="M306.251 201.342C306.251 201.342 499.457 210.975 573.942 282.828C648.427 354.682 816.082 447.913 816.082 447.913C816.082 447.913 552.979 393.38 474.034 393.38C395.088 393.38 296.78 297.361 296.78 297.361L306.251 201.342Z" fill="url(#paint6_linear_0_59)"/>
</g>
</g>
<defs>
<filter id="filter0_i_0_59" x="141.351" y="131.816" width="1145.6" height="633.283" filterUnits="userSpaceOnUse" color-interpolation-filters="sRGB">
<feFlood flood-opacity="0" result="BackgroundImageFix"/>
<feBlend mode="normal" in="SourceGraphic" in2="BackgroundImageFix" result="shape"/>
<feColorMatrix in="SourceAlpha" type="matrix" values="0 0 0 0 0 0 0 0 0 0 0 0 0 0 0 0 0 0 127 0" result="hardAlpha"/>
<feOffset dy="1.09444"/>
<feGaussianBlur stdDeviation="111.086"/>
<feComposite in2="hardAlpha" operator="arithmetic" k2="-1" k3="1"/>
<feColorMatrix type="matrix" values="0 0 0 0 0.931046 0 0 0 0 0.169089 0 0 0 0 0.173735 0 0 0 1 0"/>
<feBlend mode="normal" in2="shape" result="effect1_innerShadow_0_59"/>
</filter>
<filter id="filter1_f_0_59" x="298.298" y="239.952" width="969.384" height="561.763" filterUnits="userSpaceOnUse" color-interpolation-filters="sRGB">
<feFlood flood-opacity="0" result="BackgroundImageFix"/>
<feBlend mode="normal" in="SourceGraphic" in2="BackgroundImageFix" result="shape"/>
<feGaussianBlur stdDeviation="2.97501" result="effect1_foregroundBlur_0_59"/>
</filter>
<filter id="filter2_f_0_59" x="352.986" y="235.738" width="392.314" height="164.75" filterUnits="userSpaceOnUse" color-interpolation-filters="sRGB">
<feFlood flood-opacity="0" result="BackgroundImageFix"/>
<feBlend mode="normal" in="SourceGraphic" in2="BackgroundImageFix" result="shape"/>
<feGaussianBlur stdDeviation="14.875" result="effect1_foregroundBlur_0_59"/>
</filter>
<filter id="filter3_f_0_59" x="148.029" y="52.5911" width="816.803" height="544.073" filterUnits="userSpaceOnUse" color-interpolation-filters="sRGB">
<feFlood flood-opacity="0" result="BackgroundImageFix"/>
<feBlend mode="normal" in="SourceGraphic" in2="BackgroundImageFix" result="shape"/>
<feGaussianBlur stdDeviation="74.3752" result="effect1_foregroundBlur_0_59"/>
</filter>
<linearGradient id="paint0_linear_0_59" x1="1261.25" y1="-13.5381" x2="869.282" y2="-13.5381" gradientUnits="userSpaceOnUse">
<stop stop-color="#27275B"/>
<stop offset="1" stop-color="#202250"/>
</linearGradient>
<linearGradient id="paint1_linear_0_59" x1="463.682" y1="36.0515" x2="463.682" y2="245.174" gradientUnits="userSpaceOnUse">
<stop stop-color="#272960"/>
<stop offset="1" stop-color="#2A295D"/>
</linearGradient>
<linearGradient id="paint2_linear_0_59" x1="318.922" y1="29.9472" x2="342.724" y2="393.026" gradientUnits="userSpaceOnUse">
<stop stop-color="#1C1B45"/>
<stop offset="1" stop-color="#29224E"/>
</linearGradient>
<linearGradient id="paint3_linear_0_59" x1="153.099" y1="148.686" x2="356.011" y2="385.821" gradientUnits="userSpaceOnUse">
<stop stop-color="#191942"/>
<stop offset="1" stop-color="#04304A" stop-opacity="0.01"/>
</linearGradient>
<linearGradient id="paint4_linear_0_59" x1="590.893" y1="225.726" x2="577.231" y2="412.923" gradientUnits="userSpaceOnUse">
<stop stop-color="#CB2728"/>
<stop offset="1" stop-color="#7B152B"/>
</linearGradient>
<linearGradient id="paint5_linear_0_59" x1="786.062" y1="392.18" x2="774.996" y2="566.168" gradientUnits="userSpaceOnUse">
<stop stop-color="#8842AA"/>
<stop offset="1" stop-color="#A662E9"/>
</linearGradient>
<linearGradient id="paint6_linear_0_59" x1="359.816" y1="253.139" x2="352.114" y2="440.927" gradientUnits="userSpaceOnUse">
<stop stop-color="#931C2E"/>
<stop offset="0.384522" stop-color="#914CBD"/>
<stop offset="1" stop-color="#A05CDD"/>
</linearGradient>
</defs>
</svg>
