<svg xmlns="http://www.w3.org/2000/svg" viewBox="0 0 200 200" width="48" height="48">
  <path d="M152.637 43.363H47.363v109.274h109.274V43.363z" fill="#fff"/>
  <path d="M152.637 200L200 152.637h-47.363V200z" fill="#EA4335"/>
  <path d="M200 47.363h-47.363v105.274H200V47.363z" fill="#FBBC04"/>
  <path d="M152.637 152.637H47.363V200h105.274v-47.363z" fill="#34A853"/>
  <path d="M0 152.637v31.576C0 196.348 3.652 200 15.787 200h31.576v-47.363H0z" fill="#188038"/>
  <path d="M200 47.363V15.787C200 3.652 196.348 0 184.213 0h-31.576v47.363H200z" fill="#1967D2"/>
  <path d="M152.637 0H15.787C3.652 0 0 3.652 0 15.787v136.85h47.363V47.363h105.274V0z" fill="#4285F4"/>
  <path d="M76.168 136.059c-4.932-3.32-8.34-8.168-10.172-14.543l11.379-4.688c1.025 3.906 2.734 6.934 5.127 9.082s5.254 3.223 8.594 3.223c3.418 0 6.348-1.172 8.789-3.516 2.441-2.344 3.662-5.254 3.662-8.73 0-3.555-1.27-6.504-3.809-8.848-2.539-2.344-5.703-3.516-9.492-3.516h-5.898v-11.23h5.312c3.281 0 6.074-1.016 8.379-3.047 2.305-2.031 3.457-4.727 3.457-8.086 0-3.047-1.055-5.508-3.164-7.383-2.109-1.875-4.766-2.813-7.969-2.813-3.125 0-5.605.898-7.441 2.695-1.836 1.797-3.184 3.984-4.043 6.563L68.168 76.77c1.406-4.375 4.16-8.145 8.262-11.309 4.102-3.164 9.16-4.746 15.176-4.746 4.531 0 8.613.898 12.246 2.695 3.633 1.797 6.484 4.277 8.555 7.441 2.07 3.164 3.105 6.68 3.105 10.547 0 3.945-.957 7.305-2.871 10.078-1.914 2.773-4.238 4.883-6.973 6.328v.684c3.516 1.523 6.426 3.906 8.73 7.148 2.305 3.242 3.457 7.07 3.457 11.484 0 4.336-1.133 8.223-3.398 11.66-2.266 3.438-5.371 6.133-9.316 8.086-3.945 1.953-8.34 2.93-13.184 2.93-5.996 0-11.289-1.66-15.789-4.737z" fill="#EA4335"/>
  <path d="M128.76 73.535l-12.48 9.082-6.348-9.57 22.168-15.977h8.73v79.297H128.76V73.535z" fill="#1967D2"/>
</svg>
