<svg xmlns="http://www.w3.org/2000/svg" viewBox="0 0 48 48" fill="none">
  <rect width="48" height="48" rx="8" fill="#5952FF"/>
  <g transform="translate(8, 8) scale(0.107)">
    <path d="M133.47,9.11c45.79,0,115,14.1,147.19,46.44,8.16,8.2,18.84,24.26,18.84,47.78,0,41.82-33.56,106-70.61,143.19-19.16,19.23-49.63,44.37-90.62,44.37-40.06,0-70.67-27.32-79.52-36.22C24.81,220.59.5,168.87.5,120.64c0-30.43,8.64-57,30.68-79.17C51.6,21,86.77,9.11,133.47,9.11Zm56.68,166.77c15.46-15.53,19.62-34.66,19.62-45.19a39.47,39.47,0,0,0-11.5-28.36C183.69,87.69,167.54,83.55,150,83.55c-22.25,0-37.2,7.07-47.16,17.07-7.81,7.84-14.56,19.9-14.56,37s9.09,33.65,19,43.59c9.15,9.19,23.53,16,38,16S174.69,191.41,190.15,175.88Z" fill="white" fill-rule="evenodd"/>
  </g>
</svg>
