<svg xmlns="http://www.w3.org/2000/svg" viewBox="0 0 48 48" fill="none">
  <rect width="48" height="48" rx="8" fill="#00A1E0"/>
  <path d="M20.5 14.5c1.5-1.6 3.6-2.5 5.8-2.5 2.8 0 5.3 1.5 6.7 3.7 1.2-.5 2.5-.8 3.8-.8 5.2 0 9.2 4.2 9.2 9.1s-4 9.1-9.2 9.1c-.8 0-1.5-.1-2.2-.3-1.2 2.1-3.5 3.5-6.1 3.5-1.3 0-2.5-.3-3.5-.9-1.2 2.4-3.7 4-6.5 4-3.3 0-6-2.1-7-5-.5.1-1 .2-1.5.2-3.9 0-7-3.2-7-7.2 0-2.8 1.6-5.2 3.9-6.4-.3-.8-.4-1.7-.4-2.6C6.5 14.5 10 11 14.3 11c2.5 0 4.7 1.3 6.2 3.5z" fill="white" transform="scale(0.72) translate(4,4)"/>
</svg>