<svg width="32" height="24" viewBox="0 0 32 24" fill="none" xmlns="http://www.w3.org/2000/svg">
<mask id="mask0_0_234" style="mask-type:luminance" maskUnits="userSpaceOnUse" x="0" y="0" width="32" height="24">
<path d="M31.1878 0H0V23.3909H31.1878V0Z" fill="white"/>
</mask>
<g mask="url(#mask0_0_234)">
<mask id="mask1_0_234" style="mask-type:luminance" maskUnits="userSpaceOnUse" x="0" y="0" width="32" height="24">
<path d="M31.1878 0H0V23.3909H31.1878V0Z" fill="white"/>
</mask>
<g mask="url(#mask1_0_234)">
<path d="M0.634614 23.3909H15.4419C15.5416 23.3909 15.6394 23.3642 15.7259 23.3137L30.8373 14.4512C31.3432 14.1545 31.1369 13.3663 30.5533 13.3663H15.7461C15.6464 13.3663 15.5485 13.3929 15.462 13.4436L0.350609 22.3059C-0.155211 22.6026 0.0511479 23.3909 0.634614 23.3909Z" fill="#020100"/>
<path d="M0.634614 16.7078H15.4419C15.5416 16.7078 15.6394 16.681 15.7259 16.6305L30.8373 7.76806C31.3432 7.47143 31.1369 6.68316 30.5533 6.68316H15.7461C15.6464 6.68316 15.5485 6.70981 15.462 6.76049L0.350609 15.6228C-0.155211 15.9195 0.0511479 16.7078 0.634614 16.7078Z" fill="#747373"/>
<path d="M0.634614 10.0246H15.4419C15.5416 10.0246 15.6394 9.99799 15.7259 9.94731L30.8373 1.08493C31.3432 0.788287 31.1369 0 30.5533 0H15.7461C15.6464 0 15.5485 0.0266689 15.462 0.0773458L0.350609 8.9397C-0.155211 9.23637 0.0511479 10.0246 0.634614 10.0246Z" fill="#B4B3B3"/>
</g>
</g>
</svg>
