<svg preserveAspectRatio="none" width="100%" height="100%" overflow="visible" style="display: block;" viewBox="0 0 61.1143 21.9037" fill="none" xmlns="http://www.w3.org/2000/svg">
<path id="Vector" d="M0 18.0833V0H3.32589V15.2052H11.9476V18.0833H0ZM17.6768 18.3889C14.8114 18.3889 12.9182 17.039 12.9182 14.6704C12.9182 12.3272 14.3765 11.0792 17.3698 10.4934L21.8981 9.60196C21.8981 7.69176 21.0027 6.69845 19.263 6.69845C17.6768 6.69845 16.7813 7.43706 16.4743 8.81241L13.1485 8.65959C13.6857 5.80702 15.8859 4.17698 19.263 4.17698C23.1517 4.17698 25.1728 6.21453 25.1728 9.83118V14.7722C25.1728 15.5109 25.4287 15.7146 25.9403 15.7146H26.3753V18.0833C26.145 18.1342 25.6333 18.1851 25.1728 18.1851C23.689 18.1851 22.5889 17.6503 22.333 15.9948C21.6423 17.4465 19.9026 18.3889 17.6768 18.3889ZM18.342 16.0202C20.5166 16.0202 21.8981 14.6449 21.8981 12.5819V11.8178L18.3675 12.5309C16.9093 12.8111 16.3208 13.4224 16.3208 14.3647C16.3208 15.4344 17.0372 16.0202 18.342 16.0202ZM27.7264 21.9037V19.3822H29.4661C30.3615 19.3822 30.6941 19.1275 30.95 18.4908L31.3337 17.5484H30.3871L25.5006 4.48261H28.9032L32.3315 14.4921L35.6062 4.48261H39.0088L33.6618 19.5095C33.0478 21.1905 32.0501 21.9037 30.0545 21.9037H27.7264ZM45.5066 18.3889C41.4132 18.3889 38.8036 15.5873 38.8036 11.2829C38.8036 7.00408 41.4132 4.17698 45.4298 4.17698C49.3441 4.17698 51.9025 6.87673 51.9025 11.4612V12.1998H42.2063C42.3086 14.594 43.5622 15.791 45.5322 15.791C46.9904 15.791 47.9626 15.1033 48.372 13.9063L51.7234 14.11C50.9815 16.7589 48.6534 18.3889 45.5066 18.3889ZM42.2063 10.0095H48.5255C48.372 7.79363 47.1695 6.74939 45.4298 6.74939C43.6645 6.74939 42.4621 7.89551 42.2063 10.0095ZM53.4391 18.0833V4.48261H56.5092L56.5859 7.13143C57.1232 5.29763 58.1721 4.48261 59.8607 4.48261H61.1143V7.28425H59.8351C57.7372 7.28425 56.7139 8.1502 56.7139 10.2387V18.0833H53.4391Z" fill="var(--fill-0, #020100)"/>
</svg>
