<svg preserveAspectRatio="none" width="100%" height="100%" overflow="visible" style="display: block;" viewBox="0 0 33.9721 25.4693" fill="none" xmlns="http://www.w3.org/2000/svg">
<g id="Group">
<path id="Vector" d="M0.624228 25.4693H16.8196C16.9287 25.4693 17.0357 25.4402 17.1303 25.3852L33.6584 15.7353C34.2117 15.4122 33.9861 14.5539 33.3478 14.5539H17.1524C17.0434 14.5539 16.9364 14.5829 16.8418 14.6381L0.313601 24.2879C-0.23964 24.611 -0.0139346 25.4693 0.624228 25.4693Z" fill="var(--fill-0, #020100)"/>
<path id="Vector_2" d="M0.624228 18.1925H16.8196C16.9287 18.1925 17.0357 18.1633 17.1303 18.1083L33.6584 8.45833C34.2117 8.13535 33.9861 7.27703 33.3478 7.27703H17.1524C17.0434 7.27703 16.9364 7.30605 16.8418 7.36124L0.313601 17.0111C-0.23964 17.3341 -0.0139346 18.1925 0.624228 18.1925Z" fill="var(--fill-0, #747373)"/>
<path id="Vector_3" d="M0.624228 10.9154H16.8196C16.9287 10.9154 17.0357 10.8864 17.1303 10.8312L33.6584 1.18134C34.2117 0.858334 33.9861 0 33.3478 0H17.1524C17.0434 0 16.9364 0.0290388 16.8418 0.0842188L0.313601 9.73408C-0.23964 10.0571 -0.0139346 10.9154 0.624228 10.9154Z" fill="var(--fill-0, #B4B3B3)"/>
</g>
</svg>
