<svg preserveAspectRatio="none" overflow="visible" style="display: block;" width="871.682" height="450.857" viewBox="0 0 871.682 450.857" fill="none" xmlns="http://www.w3.org/2000/svg">
<g id="Group">
<path id="Vector" d="M0.500095 1.05153e-07L0.5 450.857" stroke="#020100"/>
<path id="Vector_2" d="M58.546 1.05153e-07V450.857" stroke="#020100"/>
<path id="Vector_3" d="M116.592 1.05153e-07V450.857" stroke="#020100"/>
<path id="Vector_4" d="M174.636 1.05153e-07V450.857" stroke="#020100"/>
<path id="Vector_5" d="M232.682 1.05153e-07V450.857" stroke="#020100"/>
<path id="Vector_6" d="M290.728 1.05153e-07V450.857" stroke="#020100"/>
<path id="Vector_7" d="M348.772 1.05153e-07V450.857" stroke="#020100"/>
<path id="Vector_8" d="M406.818 1.05153e-07V450.857" stroke="#020100"/>
<path id="Vector_9" d="M464.864 1.05153e-07V450.857" stroke="#020100"/>
<path id="Vector_10" d="M522.91 1.05153e-07V450.857" stroke="#020100"/>
<path id="Vector_11" d="M580.954 1.05153e-07V450.857" stroke="#020100"/>
<path id="Vector_12" d="M639 1.05153e-07V450.857" stroke="#020100"/>
<path id="Vector_13" d="M697.046 1.05153e-07V450.857" stroke="#020100"/>
<path id="Vector_14" d="M755.09 1.05153e-07V450.857" stroke="#020100"/>
<path id="Vector_15" d="M813.136 1.05153e-07V450.857" stroke="#020100"/>
<path id="Vector_16" d="M871.182 1.05153e-07V450.857" stroke="#020100"/>
</g>
</svg>
